<svg xmlns="http://www.w3.org/2000/svg">
    <symbol id="close-button" viewBox="0 0 24 24">
        <svg width="24" height="24" viewBox="0 0 24 24" xmlns="http://www.w3.org/2000/svg">
            <path d="M10.5859 12L2.79297 4.20706L4.20718 2.79285L12.0001 10.5857L19.793 2.79285L21.2072 4.20706L13.4143 12L21.2072 19.7928L19.793 21.2071L12.0001 13.4142L4.20718 21.2071L2.79297 19.7928L10.5859 12Z"/>
        </svg>
    </symbol>
    <symbol id="email" viewBox="0 0 24 24">
        <svg width="24" height="25" viewBox="0 0 24 25" xmlns="http://www.w3.org/2000/svg">
            <path d="M21 3.75C21.5523 3.75 22 4.19772 22 4.75V20.7566C22 21.3052 21.5447 21.75 21.0082 21.75H2.9918C2.44405 21.75 2 21.3051 2 20.7566V19.75H20V8.05L12 15.25L2 6.25V4.75C2 4.19772 2.44772 3.75 3 3.75H21ZM8 15.75V17.75H0V15.75H8ZM5 10.75V12.75H0V10.75H5ZM19.5659 5.75H4.43414L12 12.5593L19.5659 5.75Z"/>
        </svg>
    </symbol>
    <symbol id="password" viewBox="0 0 24 24">
        <svg width="24" height="25" viewBox="0 0 24 25" xmlns="http://www.w3.org/2000/svg">
            <path d="M12.917 13.75C12.441 16.5877 9.973 18.75 7 18.75C3.68629 18.75 1 16.0637 1 12.75C1 9.43629 3.68629 6.75 7 6.75C9.973 6.75 12.441 8.91229 12.917 11.75H23V13.75H21V17.75H19V13.75H17V17.75H15V13.75H12.917ZM7 16.75C9.20914 16.75 11 14.9591 11 12.75C11 10.5409 9.20914 8.75 7 8.75C4.79086 8.75 3 10.5409 3 12.75C3 14.9591 4.79086 16.75 7 16.75Z"/>
        </svg>
    </symbol>
    <symbol id="name" viewBox="0 0 24 24">
        <svg width="24" height="25" viewBox="0 0 24 25" xmlns="http://www.w3.org/2000/svg">
            <path d="M4 22.75C4 18.3317 7.58172 14.75 12 14.75C16.4183 14.75 20 18.3317 20 22.75H18C18 19.4363 15.3137 16.75 12 16.75C8.68629 16.75 6 19.4363 6 22.75H4ZM12 13.75C8.685 13.75 6 11.065 6 7.75C6 4.435 8.685 1.75 12 1.75C15.315 1.75 18 4.435 18 7.75C18 11.065 15.315 13.75 12 13.75ZM12 11.75C14.21 11.75 16 9.96 16 7.75C16 5.54 14.21 3.75 12 3.75C9.79 3.75 8 5.54 8 7.75C8 9.96 9.79 11.75 12 11.75Z"/>
        </svg>
    </symbol>
    <symbol id="btn-like" viewBox="0 0 24 24">
        <svg width="24" height="24" viewBox="0 0 24 24" xmlns="http://www.w3.org/2000/svg">
            <path d="M12 21.35L10.55 20.03C5.4 15.36 2 12.28 2 8.5C2 5.42 4.42 3 7.5 3C9.24 3 10.91 3.81 12 5.09C13.09 3.81 14.76 3 16.5 3C19.58 3 22 5.42 22 8.5C22 12.28 18.6 15.36 13.45 20.04L12 21.35Z" stroke-width="2"/>
        </svg>
    </symbol>
    <symbol id="btn-random" viewBox="0 0 24 24">
        <svg width="24" height="24" viewBox="0 0 24 24" xmlns="http://www.w3.org/2000/svg">
            <path d="M12 4C14.7486 4 17.1749 5.38626 18.6156 7.5H16V9.5H22V3.5H20V5.99936C18.1762 3.57166 15.2724 2 12 2C6.47715 2 2 6.47715 2 12H4C4 7.58172 7.58172 4 12 4ZM20 12C20 16.4183 16.4183 20 12 20C9.25144 20 6.82508 18.6137 5.38443 16.5H8V14.5H2V20.5H4V18.0006C5.82381 20.4283 8.72764 22 12 22C17.5228 22 22 17.5228 22 12H20Z"/>
        </svg>
    </symbol>
    <symbol id="social-vk" viewBox="0 0 36 36">
        <svg width="36" height="36" viewBox="0 0 36 36" fill="none" xmlns="http://www.w3.org/2000/svg">
            <rect x="0.5" y="0.5" width="35" height="35" rx="7.5" stroke="currentColor"/>
            <path fill-rule="evenodd" clip-rule="evenodd" d="M26.4875 14.3797C26.6262 13.9851 26.4875 13.6981 25.8729 13.6981H23.8308C23.3153 13.6981 23.0774 13.9492 22.9387 14.2183C22.9387 14.2183 21.8879 16.5141 20.4207 18.0027C19.9449 18.4332 19.7268 18.5767 19.4691 18.5767C19.3303 18.5767 19.1519 18.4332 19.1519 18.0386V14.3617C19.1519 13.8954 18.9933 13.6802 18.5571 13.6802H15.3453C15.0281 13.6802 14.8299 13.8954 14.8299 14.1106C14.8299 14.5591 15.5634 14.6667 15.6427 15.9222V18.6484C15.6427 19.2403 15.5238 19.3479 15.266 19.3479C14.5721 19.3479 12.8869 17.0342 11.8758 14.3976C11.6775 13.8775 11.4793 13.6802 10.9638 13.6802H8.90191C8.30714 13.6802 8.20801 13.9313 8.20801 14.2003C8.20801 14.6846 8.90191 17.1239 11.4396 20.3524C13.1249 22.5585 15.5238 23.7422 17.6848 23.7422C18.9933 23.7422 19.1519 23.4732 19.1519 23.0248V21.3568C19.1519 20.8187 19.2708 20.729 19.6872 20.729C19.9846 20.729 20.5199 20.8725 21.7292 21.9307C23.117 23.1862 23.355 23.7602 24.1282 23.7602H26.1703C26.765 23.7602 27.0426 23.4911 26.884 22.971C26.7056 22.4509 26.0315 21.6976 25.1591 20.8007C24.6833 20.2986 23.9696 19.7426 23.7515 19.4735C23.4541 19.1148 23.5334 18.9713 23.7515 18.6484C23.7317 18.6484 26.2297 15.4559 26.4875 14.3797Z" fill="currentColor"/>
        </svg>
    </symbol>
    <symbol id="social-youtube" viewBox="0 0 36 36">
        <svg width="36" height="36" viewBox="0 0 36 36" fill="none" xmlns="http://www.w3.org/2000/svg">
            <rect x="0.5" y="0.5" width="35" height="35" rx="7.5" stroke="currentColor"/>
            <path fill-rule="evenodd" clip-rule="evenodd" d="M24.0013 13.0496C24.6622 13.2309 25.1827 13.7653 25.3593 14.4439C25.6803 15.6738 25.6803 18.24 25.6803 18.24C25.6803 18.24 25.6803 20.8061 25.3593 22.036C25.1827 22.7146 24.6622 23.249 24.0013 23.4305C22.8035 23.76 18.0003 23.76 18.0003 23.76C18.0003 23.76 13.1971 23.76 11.9993 23.4305C11.3383 23.249 10.8179 22.7146 10.6412 22.036C10.3203 20.8061 10.3203 18.24 10.3203 18.24C10.3203 18.24 10.3203 15.6738 10.6412 14.4439C10.8179 13.7653 11.3383 13.2309 11.9993 13.0496C13.1971 12.72 18.0003 12.72 18.0003 12.72C18.0003 12.72 22.8035 12.72 24.0013 13.0496ZM16.5603 16.0802V20.8802L20.4003 18.4803L16.5603 16.0802Z" fill="currentColor"/>
        </svg>
    </symbol>
    <symbol id="social-ok" viewBox="0 0 36 36">
        <svg width="36" height="36" viewBox="0 0 36 36" fill="none" xmlns="http://www.w3.org/2000/svg">
            <rect x="0.5" y="0.5" width="35" height="35" rx="7.5" stroke="currentColor"/>
            <path d="M19.919 22.2623L22.5725 24.8239C23.116 25.3475 23.116 26.1979 22.5725 26.7221C22.0294 27.2462 21.1493 27.2462 20.6069 26.7221L17.998 24.2049L15.3914 26.7221C15.1196 26.9839 14.7635 27.1149 14.4074 27.1149C14.0518 27.1149 13.6962 26.9839 13.4244 26.7221C12.8814 26.1979 12.8814 25.348 13.4238 24.8239L16.0776 22.2623C15.1114 22.0498 14.1796 21.6802 13.3213 21.1605C12.6718 20.7651 12.4767 19.937 12.8859 19.3094C13.2941 18.6811 14.1523 18.4919 14.803 18.8872C16.7461 20.0672 19.2493 20.0674 21.1936 18.8872C21.8443 18.4919 22.7023 18.6811 23.1112 19.3094C23.5205 19.9364 23.3248 20.7651 22.6753 21.1605C21.817 21.6808 20.8852 22.0498 19.919 22.2623Z" fill="currentColor"/>
            <path fill-rule="evenodd" clip-rule="evenodd" d="M13.2402 13.942C13.2402 16.468 15.3691 18.5227 17.9868 18.5227C20.605 18.5227 22.7333 16.468 22.7333 13.942C22.7333 11.4152 20.605 9.35991 17.9868 9.35991C15.3691 9.35991 13.2402 11.4152 13.2402 13.942ZM19.952 13.9415C19.952 12.8954 19.0705 12.0447 17.9867 12.0447C16.9038 12.0447 16.0214 12.8954 16.0214 13.9415C16.0214 14.9868 16.9038 15.838 17.9867 15.838C19.0705 15.838 19.952 14.9868 19.952 13.9415Z" fill="currentColor"/>
        </svg>
    </symbol>
    <symbol id="social-telegram" viewBox="0 0 36 36">
        <svg width="36" height="36" viewBox="0 0 36 36" fill="none" xmlns="http://www.w3.org/2000/svg">
            <rect x="0.5" y="0.5" width="35" height="35" rx="7.5" stroke="currentColor"/>
            <path d="M8.60106 17.8588C10.2844 16.9316 12.1635 16.1577 13.9192 15.3799C16.9397 14.1058 19.9723 12.8539 23.0354 11.6883C23.6314 11.4897 24.7022 11.2955 24.8072 12.1787C24.7497 13.4288 24.5132 14.6717 24.3509 15.9145C23.9392 18.6476 23.4632 21.3714 22.9991 24.0955C22.8392 25.0029 21.7025 25.4726 20.9752 24.892C19.2273 23.7113 17.4659 22.5421 15.7403 21.3341C15.1751 20.7597 15.6992 19.9349 16.2041 19.5247C17.6437 18.106 19.1705 16.9006 20.5349 15.4085C20.9029 14.5197 19.8155 15.2687 19.4568 15.4982C17.4859 16.8564 15.5633 18.2975 13.4854 19.4911C12.424 20.0754 11.1869 19.5761 10.1259 19.25C9.1747 18.8562 7.78077 18.4594 8.60097 17.8589L8.60106 17.8588Z" fill="currentColor"/>
        </svg>
    </symbol>
    <symbol id="back-arrow" viewBox="0 0 14 22">
        <svg width="14" height="22" viewBox="0 0 14 22" xmlns="http://www.w3.org/2000/svg">
            <path d="M5.04701 11.0012L13.2967 19.2507L10.9397 21.6077L0.333008 11.0012L10.9397 0.394531L13.2967 2.75155L5.04701 11.0012Z"/>
        </svg>
    </symbol>
    <symbol id="genres" viewBox="0 0 24 24">
        <svg width="24" height="24" viewBox="0 0 24 24" xmlns="http://www.w3.org/2000/svg">
            <path d="M7 11.5C4.51472 11.5 2.5 9.48528 2.5 7C2.5 4.51472 4.51472 2.5 7 2.5C9.48528 2.5 11.5 4.51472 11.5 7C11.5 9.48528 9.48528 11.5 7 11.5ZM7 21.5C4.51472 21.5 2.5 19.4853 2.5 17C2.5 14.5147 4.51472 12.5 7 12.5C9.48528 12.5 11.5 14.5147 11.5 17C11.5 19.4853 9.48528 21.5 7 21.5ZM17 11.5C14.5147 11.5 12.5 9.48528 12.5 7C12.5 4.51472 14.5147 2.5 17 2.5C19.4853 2.5 21.5 4.51472 21.5 7C21.5 9.48528 19.4853 11.5 17 11.5ZM17 21.5C14.5147 21.5 12.5 19.4853 12.5 17C12.5 14.5147 14.5147 12.5 17 12.5C19.4853 12.5 21.5 14.5147 21.5 17C21.5 19.4853 19.4853 21.5 17 21.5ZM7 9.5C8.38071 9.5 9.5 8.38071 9.5 7C9.5 5.61929 8.38071 4.5 7 4.5C5.61929 4.5 4.5 5.61929 4.5 7C4.5 8.38071 5.61929 9.5 7 9.5ZM7 19.5C8.38071 19.5 9.5 18.3807 9.5 17C9.5 15.6193 8.38071 14.5 7 14.5C5.61929 14.5 4.5 15.6193 4.5 17C4.5 18.3807 5.61929 19.5 7 19.5ZM17 9.5C18.3807 9.5 19.5 8.38071 19.5 7C19.5 5.61929 18.3807 4.5 17 4.5C15.6193 4.5 14.5 5.61929 14.5 7C14.5 8.38071 15.6193 9.5 17 9.5ZM17 19.5C18.3807 19.5 19.5 18.3807 19.5 17C19.5 15.6193 18.3807 14.5 17 14.5C15.6193 14.5 14.5 15.6193 14.5 17C14.5 18.3807 15.6193 19.5 17 19.5Z" fill="currentColor"/>
        </svg>
    </symbol>
    <symbol id="search" viewBox="0 0 24 24">
        <svg width="24" height="24" viewBox="0 0 24 24" xmlns="http://www.w3.org/2000/svg">
            <path d="M18.031 16.6168L22.3137 20.8995L20.8995 22.3137L16.6168 18.031C15.0769 19.263 13.124 20 11 20C6.032 20 2 15.968 2 11C2 6.032 6.032 2 11 2C15.968 2 20 6.032 20 11C20 13.124 19.263 15.0769 18.031 16.6168ZM16.0247 15.8748C17.2475 14.6146 18 12.8956 18 11C18 7.1325 14.8675 4 11 4C7.1325 4 4 7.1325 4 11C4 14.8675 7.1325 18 11 18C12.8956 18 14.6146 17.2475 15.8748 16.0247L16.0247 15.8748Z" fill="currentColor"/>
        </svg>
    </symbol>
    <symbol id="user" viewBox="0 0 24 24">
        <svg width="24" height="24" viewBox="0 0 24 24" xmlns="http://www.w3.org/2000/svg">
            <path d="M4 22C4 17.5817 7.58172 14 12 14C16.4183 14 20 17.5817 20 22H18C18 18.6863 15.3137 16 12 16C8.68629 16 6 18.6863 6 22H4ZM12 13C8.685 13 6 10.315 6 7C6 3.685 8.685 1 12 1C15.315 1 18 3.685 18 7C18 10.315 15.315 13 12 13ZM12 11C14.21 11 16 9.21 16 7C16 4.79 14.21 3 12 3C9.79 3 8 4.79 8 7C8 9.21 9.79 11 12 11Z" fill="currentColor"/>
        </svg>
    </symbol>
    <symbol id="close" viewBox="0 0 24 24">
        <svg width="24" height="24" viewBox="0 0 24 24" fill="none" xmlns="http://www.w3.org/2000/svg">
            <path d="M11.9987 10.5865L16.9485 5.63672L18.3627 7.05093L13.4129 12.0007L18.3627 16.9504L16.9485 18.3646L11.9987 13.4149L7.04899 18.3646L5.63477 16.9504L10.5845 12.0007L5.63477 7.05093L7.04899 5.63672L11.9987 10.5865Z" fill="white" fill-opacity="0.5"/>
        </svg>
    </symbol>
</svg>